<?xml version="1.0" standalone="no"?>
<!DOCTYPE svg PUBLIC "-//W3C//DTD SVG 1.1//EN" "http://www.w3.org/Graphics/SVG/1.1/DTD/svg11.dtd">
<svg xmlns="http://www.w3.org/2000/svg" xmlns:xlink="http://www.w3.org/1999/xlink" width="375" zoomAndPan="magnify" viewBox="0 0 375 374.999991" height="375" preserveAspectRatio="xMidYMid meet" version="1.2"><defs/><g id="52c5aa3adc"><rect x="0" width="375" y="0" height="374.999991" style="fill:#ffffff;fill-opacity:1;stroke:none;"/><rect x="0" width="375" y="0" height="374.999991" style="fill:#0a1f44;fill-opacity:1;stroke:none;"/><g style="fill:#f8f9fa;fill-opacity:1;"><g transform="translate(47.690075, 224.500108)"><path style="stroke:none" d="M 46.171875 0 L 44.40625 -7.796875 C 40.382812 -1.765625 34.5625 1.25 26.9375 1.25 C 19.519531 1.25 13.800781 -1.175781 9.78125 -6.03125 C 5.757812 -10.882812 3.75 -18.0625 3.75 -27.5625 C 3.75 -36.988281 5.757812 -44.109375 9.78125 -48.921875 C 13.800781 -53.742188 19.519531 -56.15625 26.9375 -56.15625 C 33.238281 -56.15625 38.367188 -54.039062 42.328125 -49.8125 L 42.328125 -75.390625 L 63.015625 -75.390625 L 63.015625 0 Z M 33.375 -40.859375 C 27.414062 -40.859375 24.4375 -37.289062 24.4375 -30.15625 L 24.4375 -24.640625 C 24.4375 -17.566406 27.414062 -14.03125 33.375 -14.03125 C 36.425781 -14.03125 38.710938 -15.101562 40.234375 -17.25 C 41.765625 -19.40625 42.53125 -22.21875 42.53125 -25.6875 L 42.53125 -29.109375 C 42.53125 -32.578125 41.765625 -35.398438 40.234375 -37.578125 C 38.710938 -39.765625 36.425781 -40.859375 33.375 -40.859375 Z M 33.375 -40.859375 "/></g></g><g style="fill:#f8f9fa;fill-opacity:1;"><g transform="translate(106.229896, 224.500108)"><path style="stroke:none" d="M 34.625 -56.15625 C 44.257812 -56.15625 51.832031 -53.707031 57.34375 -48.8125 C 62.851562 -43.925781 65.609375 -36.804688 65.609375 -27.453125 C 65.609375 -18.085938 62.851562 -10.960938 57.34375 -6.078125 C 51.832031 -1.191406 44.257812 1.25 34.625 1.25 C 24.988281 1.25 17.429688 -1.175781 11.953125 -6.03125 C 6.484375 -10.882812 3.75 -18.023438 3.75 -27.453125 C 3.75 -36.878906 6.484375 -44.019531 11.953125 -48.875 C 17.429688 -53.726562 24.988281 -56.15625 34.625 -56.15625 Z M 34.625 -42.109375 C 27.832031 -42.109375 24.4375 -38.191406 24.4375 -30.359375 L 24.4375 -24.4375 C 24.4375 -16.675781 27.832031 -12.796875 34.625 -12.796875 C 41.488281 -12.796875 44.921875 -16.675781 44.921875 -24.4375 L 44.921875 -30.359375 C 44.921875 -38.191406 41.488281 -42.109375 34.625 -42.109375 Z M 34.625 -42.109375 "/></g></g><g style="fill:#f8f9fa;fill-opacity:1;"><g transform="translate(164.769718, 224.500108)"><path style="stroke:none" d="M 79.125 -56.15625 C 85.363281 -56.15625 90.039062 -54.367188 93.15625 -50.796875 C 96.28125 -47.222656 97.84375 -42.144531 97.84375 -35.5625 L 97.84375 0 L 77.15625 0 L 77.15625 -33.0625 C 77.15625 -35.425781 76.582031 -37.316406 75.4375 -38.734375 C 74.289062 -40.148438 72.679688 -40.859375 70.609375 -40.859375 C 68.179688 -40.859375 66.203125 -40.023438 64.671875 -38.359375 C 63.148438 -36.703125 62.390625 -34.660156 62.390625 -32.234375 L 62.390625 0 L 41.703125 0 L 41.703125 -33.0625 C 41.703125 -35.425781 41.128906 -37.316406 39.984375 -38.734375 C 38.835938 -40.148438 37.222656 -40.859375 35.140625 -40.859375 C 32.710938 -40.859375 30.738281 -40.023438 29.21875 -38.359375 C 27.695312 -36.703125 26.9375 -34.660156 26.9375 -32.234375 L 26.9375 0 L 6.234375 0 L 6.234375 -54.90625 L 23.1875 -54.90625 L 24.546875 -46.6875 C 26.617188 -49.601562 29.367188 -51.910156 32.796875 -53.609375 C 36.234375 -55.304688 39.859375 -56.15625 43.671875 -56.15625 C 51.921875 -56.15625 57.46875 -53 60.3125 -46.6875 C 62.457031 -49.601562 65.210938 -51.910156 68.578125 -53.609375 C 71.941406 -55.304688 75.457031 -56.15625 79.125 -56.15625 Z M 79.125 -56.15625 "/></g></g><g style="fill:#f8f9fa;fill-opacity:1;"><g transform="translate(257.935033, 224.500108)"><path style="stroke:none" d="M 34.625 -56.15625 C 44.257812 -56.15625 51.832031 -53.707031 57.34375 -48.8125 C 62.851562 -43.925781 65.609375 -36.804688 65.609375 -27.453125 C 65.609375 -18.085938 62.851562 -10.960938 57.34375 -6.078125 C 51.832031 -1.191406 44.257812 1.25 34.625 1.25 C 24.988281 1.25 17.429688 -1.175781 11.953125 -6.03125 C 6.484375 -10.882812 3.75 -18.023438 3.75 -27.453125 C 3.75 -36.878906 6.484375 -44.019531 11.953125 -48.875 C 17.429688 -53.726562 24.988281 -56.15625 34.625 -56.15625 Z M 34.625 -42.109375 C 27.832031 -42.109375 24.4375 -38.191406 24.4375 -30.359375 L 24.4375 -24.4375 C 24.4375 -16.675781 27.832031 -12.796875 34.625 -12.796875 C 41.488281 -12.796875 44.921875 -16.675781 44.921875 -24.4375 L 44.921875 -30.359375 C 44.921875 -38.191406 41.488281 -42.109375 34.625 -42.109375 Z M 34.625 -42.109375 "/></g></g></g></svg>