<?xml version="1.0" standalone="no"?>
<!DOCTYPE svg PUBLIC "-//W3C//DTD SVG 1.1//EN" "http://www.w3.org/Graphics/SVG/1.1/DTD/svg11.dtd">
<svg xmlns="http://www.w3.org/2000/svg" xmlns:xlink="http://www.w3.org/1999/xlink" width="375" zoomAndPan="magnify" viewBox="0 0 375 374.999991" height="375" preserveAspectRatio="xMidYMid meet" version="1.2"><defs/><g id="4135c1b0d5"><rect x="0" width="375" y="0" height="374.999991" style="fill:#ffffff;fill-opacity:1;stroke:none;"/><rect x="0" width="375" y="0" height="374.999991" style="fill:#000000;fill-opacity:1;stroke:none;"/><g style="fill:#f8f9fa;fill-opacity:1;"><g transform="translate(47.693003, 224.500063)"><path style="stroke:none" d="M 46.171875 0 L 44.40625 -7.796875 C 40.382812 -1.765625 34.5625 1.25 26.9375 1.25 C 19.519531 1.25 13.800781 -1.175781 9.78125 -6.03125 C 5.757812 -10.882812 3.75 -18.0625 3.75 -27.5625 C 3.75 -36.988281 5.757812 -44.109375 9.78125 -48.921875 C 13.800781 -53.742188 19.519531 -56.15625 26.9375 -56.15625 C 33.238281 -56.15625 38.367188 -54.039062 42.328125 -49.8125 L 42.328125 -75.390625 L 63.015625 -75.390625 L 63.015625 0 Z M 33.375 -40.859375 C 27.414062 -40.859375 24.4375 -37.289062 24.4375 -30.15625 L 24.4375 -24.640625 C 24.4375 -17.566406 27.414062 -14.03125 33.375 -14.03125 C 36.425781 -14.03125 38.710938 -15.101562 40.234375 -17.25 C 41.765625 -19.40625 42.53125 -22.21875 42.53125 -25.6875 L 42.53125 -29.109375 C 42.53125 -32.578125 41.765625 -35.398438 40.234375 -37.578125 C 38.710938 -39.765625 36.425781 -40.859375 33.375 -40.859375 Z M 33.375 -40.859375 "/></g></g><g style="fill:#f8f9fa;fill-opacity:1;"><g transform="translate(106.232824, 224.500063)"><path style="stroke:none" d="M 34.625 -56.15625 C 44.257812 -56.15625 51.832031 -53.707031 57.34375 -48.8125 C 62.851562 -43.925781 65.609375 -36.804688 65.609375 -27.453125 C 65.609375 -18.085938 62.851562 -10.960938 57.34375 -6.078125 C 51.832031 -1.191406 44.257812 1.25 34.625 1.25 C 24.988281 1.25 17.429688 -1.175781 11.953125 -6.03125 C 6.484375 -10.882812 3.75 -18.023438 3.75 -27.453125 C 3.75 -36.878906 6.484375 -44.019531 11.953125 -48.875 C 17.429688 -53.726562 24.988281 -56.15625 34.625 -56.15625 Z M 34.625 -42.109375 C 27.832031 -42.109375 24.4375 -38.191406 24.4375 -30.359375 L 24.4375 -24.4375 C 24.4375 -16.675781 27.832031 -12.796875 34.625 -12.796875 C 41.488281 -12.796875 44.921875 -16.675781 44.921875 -24.4375 L 44.921875 -30.359375 C 44.921875 -38.191406 41.488281 -42.109375 34.625 -42.109375 Z M 34.625 -42.109375 "/></g></g><g style="fill:#f8f9fa;fill-opacity:1;"><g transform="translate(164.772646, 224.500063)"><path style="stroke:none" d="M 79.125 -56.15625 C 85.363281 -56.15625 90.039062 -54.367188 93.15625 -50.796875 C 96.28125 -47.222656 97.84375 -42.144531 97.84375 -35.5625 L 97.84375 0 L 77.15625 0 L 77.15625 -33.0625 C 77.15625 -35.425781 76.582031 -37.316406 75.4375 -38.734375 C 74.289062 -40.148438 72.679688 -40.859375 70.609375 -40.859375 C 68.179688 -40.859375 66.203125 -40.023438 64.671875 -38.359375 C 63.148438 -36.703125 62.390625 -34.660156 62.390625 -32.234375 L 62.390625 0 L 41.703125 0 L 41.703125 -33.0625 C 41.703125 -35.425781 41.128906 -37.316406 39.984375 -38.734375 C 38.835938 -40.148438 37.222656 -40.859375 35.140625 -40.859375 C 32.710938 -40.859375 30.738281 -40.023438 29.21875 -38.359375 C 27.695312 -36.703125 26.9375 -34.660156 26.9375 -32.234375 L 26.9375 0 L 6.234375 0 L 6.234375 -54.90625 L 23.1875 -54.90625 L 24.546875 -46.6875 C 26.617188 -49.601562 29.367188 -51.910156 32.796875 -53.609375 C 36.234375 -55.304688 39.859375 -56.15625 43.671875 -56.15625 C 51.921875 -56.15625 57.46875 -53 60.3125 -46.6875 C 62.457031 -49.601562 65.210938 -51.910156 68.578125 -53.609375 C 71.941406 -55.304688 75.457031 -56.15625 79.125 -56.15625 Z M 79.125 -56.15625 "/></g></g><g style="fill:#f8f9fa;fill-opacity:1;"><g transform="translate(257.937961, 224.500063)"><path style="stroke:none" d="M 34.625 -56.15625 C 44.257812 -56.15625 51.832031 -53.707031 57.34375 -48.8125 C 62.851562 -43.925781 65.609375 -36.804688 65.609375 -27.453125 C 65.609375 -18.085938 62.851562 -10.960938 57.34375 -6.078125 C 51.832031 -1.191406 44.257812 1.25 34.625 1.25 C 24.988281 1.25 17.429688 -1.175781 11.953125 -6.03125 C 6.484375 -10.882812 3.75 -18.023438 3.75 -27.453125 C 3.75 -36.878906 6.484375 -44.019531 11.953125 -48.875 C 17.429688 -53.726562 24.988281 -56.15625 34.625 -56.15625 Z M 34.625 -42.109375 C 27.832031 -42.109375 24.4375 -38.191406 24.4375 -30.359375 L 24.4375 -24.4375 C 24.4375 -16.675781 27.832031 -12.796875 34.625 -12.796875 C 41.488281 -12.796875 44.921875 -16.675781 44.921875 -24.4375 L 44.921875 -30.359375 C 44.921875 -38.191406 41.488281 -42.109375 34.625 -42.109375 Z M 34.625 -42.109375 "/></g></g><g style="fill:#f8f9fa;fill-opacity:1;"><g transform="translate(94.183593, 251.245296)"><path style="stroke:none" d="M 3.625 -6.625 C 3.925781 -6.914062 4.273438 -7.144531 4.671875 -7.3125 C 5.078125 -7.476562 5.5 -7.5625 5.9375 -7.5625 C 6.789062 -7.5625 7.429688 -7.320312 7.859375 -6.84375 C 8.296875 -6.363281 8.515625 -5.675781 8.515625 -4.78125 L 8.515625 0 L 5.71875 0 L 5.71875 -4.453125 C 5.71875 -4.765625 5.632812 -5.015625 5.46875 -5.203125 C 5.3125 -5.398438 5.082031 -5.5 4.78125 -5.5 C 4.4375 -5.5 4.15625 -5.382812 3.9375 -5.15625 C 3.726562 -4.9375 3.625 -4.664062 3.625 -4.34375 L 3.625 0 L 0.84375 0 L 0.84375 -10.15625 L 3.625 -10.15625 Z M 3.625 -6.625 "/></g></g><g style="fill:#f8f9fa;fill-opacity:1;"><g transform="translate(103.516386, 251.245296)"><path style="stroke:none" d="M 4.65625 -7.5625 C 5.957031 -7.5625 6.976562 -7.234375 7.71875 -6.578125 C 8.457031 -5.921875 8.828125 -4.960938 8.828125 -3.703125 C 8.828125 -2.441406 8.457031 -1.476562 7.71875 -0.8125 C 6.976562 -0.15625 5.957031 0.171875 4.65625 0.171875 C 3.363281 0.171875 2.347656 -0.15625 1.609375 -0.8125 C 0.867188 -1.46875 0.5 -2.429688 0.5 -3.703125 C 0.5 -4.960938 0.867188 -5.921875 1.609375 -6.578125 C 2.347656 -7.234375 3.363281 -7.5625 4.65625 -7.5625 Z M 4.65625 -5.671875 C 3.75 -5.671875 3.296875 -5.144531 3.296875 -4.09375 L 3.296875 -3.296875 C 3.296875 -2.242188 3.75 -1.71875 4.65625 -1.71875 C 5.582031 -1.71875 6.046875 -2.242188 6.046875 -3.296875 L 6.046875 -4.09375 C 6.046875 -5.144531 5.582031 -5.671875 4.65625 -5.671875 Z M 4.65625 -5.671875 "/></g></g><g style="fill:#f8f9fa;fill-opacity:1;"><g transform="translate(112.84918, 251.245296)"><path style="stroke:none" d="M 10.65625 -7.5625 C 11.488281 -7.5625 12.113281 -7.320312 12.53125 -6.84375 C 12.957031 -6.363281 13.171875 -5.675781 13.171875 -4.78125 L 13.171875 0 L 10.390625 0 L 10.390625 -4.453125 C 10.390625 -4.765625 10.3125 -5.015625 10.15625 -5.203125 C 10 -5.398438 9.78125 -5.5 9.5 -5.5 C 9.175781 -5.5 8.910156 -5.382812 8.703125 -5.15625 C 8.503906 -4.9375 8.40625 -4.664062 8.40625 -4.34375 L 8.40625 0 L 5.609375 0 L 5.609375 -4.453125 C 5.609375 -4.765625 5.53125 -5.015625 5.375 -5.203125 C 5.226562 -5.398438 5.015625 -5.5 4.734375 -5.5 C 4.398438 -5.5 4.128906 -5.382812 3.921875 -5.15625 C 3.722656 -4.9375 3.625 -4.664062 3.625 -4.34375 L 3.625 0 L 0.84375 0 L 0.84375 -7.390625 L 3.125 -7.390625 L 3.296875 -6.28125 C 3.578125 -6.675781 3.945312 -6.988281 4.40625 -7.21875 C 4.875 -7.445312 5.363281 -7.5625 5.875 -7.5625 C 6.988281 -7.5625 7.738281 -7.132812 8.125 -6.28125 C 8.40625 -6.675781 8.769531 -6.988281 9.21875 -7.21875 C 9.675781 -7.445312 10.15625 -7.5625 10.65625 -7.5625 Z M 10.65625 -7.5625 "/></g></g><g style="fill:#f8f9fa;fill-opacity:1;"><g transform="translate(126.841366, 251.245296)"><path style="stroke:none" d="M 4.65625 -7.5625 C 6.007812 -7.5625 7.039062 -7.242188 7.75 -6.609375 C 8.46875 -5.972656 8.828125 -5.003906 8.828125 -3.703125 L 8.828125 -3.21875 L 3.296875 -3.21875 C 3.296875 -2.6875 3.410156 -2.285156 3.640625 -2.015625 C 3.878906 -1.742188 4.257812 -1.609375 4.78125 -1.609375 C 5.238281 -1.609375 5.578125 -1.707031 5.796875 -1.90625 C 6.015625 -2.101562 6.125 -2.363281 6.125 -2.6875 L 8.828125 -2.6875 C 8.828125 -1.789062 8.488281 -1.085938 7.8125 -0.578125 C 7.132812 -0.078125 6.140625 0.171875 4.828125 0.171875 C 3.453125 0.171875 2.382812 -0.144531 1.625 -0.78125 C 0.875 -1.425781 0.5 -2.398438 0.5 -3.703125 C 0.5 -4.960938 0.867188 -5.921875 1.609375 -6.578125 C 2.347656 -7.234375 3.363281 -7.5625 4.65625 -7.5625 Z M 4.78125 -5.78125 C 3.894531 -5.78125 3.398438 -5.363281 3.296875 -4.53125 L 6.015625 -4.53125 C 6.015625 -4.914062 5.90625 -5.21875 5.6875 -5.4375 C 5.46875 -5.664062 5.164062 -5.78125 4.78125 -5.78125 Z M 4.78125 -5.78125 "/></g></g><g style="fill:#f8f9fa;fill-opacity:1;"><g transform="translate(136.17416, 251.245296)"><path style="stroke:none" d=""/></g></g><g style="fill:#f8f9fa;fill-opacity:1;"><g transform="translate(140.833564, 251.245296)"><path style="stroke:none" d="M 4.359375 -7.5625 C 5.347656 -7.5625 6.179688 -7.363281 6.859375 -6.96875 C 7.546875 -6.582031 7.890625 -5.988281 7.890625 -5.1875 L 5.3125 -5.1875 C 5.3125 -5.457031 5.1875 -5.644531 4.9375 -5.75 C 4.769531 -5.84375 4.5625 -5.890625 4.3125 -5.890625 C 3.632812 -5.890625 3.296875 -5.734375 3.296875 -5.421875 C 3.296875 -5.242188 3.410156 -5.113281 3.640625 -5.03125 C 3.878906 -4.957031 4.265625 -4.878906 4.796875 -4.796875 C 5.453125 -4.703125 6 -4.59375 6.4375 -4.46875 C 6.875 -4.34375 7.253906 -4.117188 7.578125 -3.796875 C 7.910156 -3.472656 8.078125 -3.023438 8.078125 -2.453125 C 8.078125 -1.503906 7.722656 -0.828125 7.015625 -0.421875 C 6.316406 -0.0234375 5.394531 0.171875 4.25 0.171875 C 3.601562 0.171875 2.988281 0.0820312 2.40625 -0.09375 C 1.832031 -0.28125 1.363281 -0.566406 1 -0.953125 C 0.632812 -1.335938 0.453125 -1.820312 0.453125 -2.40625 L 3.03125 -2.40625 L 3.03125 -2.359375 C 3.039062 -2.035156 3.175781 -1.8125 3.4375 -1.6875 C 3.695312 -1.5625 3.96875 -1.5 4.25 -1.5 C 5.03125 -1.5 5.421875 -1.679688 5.421875 -2.046875 C 5.421875 -2.234375 5.296875 -2.367188 5.046875 -2.453125 C 4.804688 -2.535156 4.410156 -2.625 3.859375 -2.71875 C 3.203125 -2.832031 2.660156 -2.953125 2.234375 -3.078125 C 1.804688 -3.210938 1.429688 -3.4375 1.109375 -3.75 C 0.796875 -4.0625 0.640625 -4.492188 0.640625 -5.046875 C 0.640625 -5.953125 0.984375 -6.597656 1.671875 -6.984375 C 2.359375 -7.367188 3.253906 -7.5625 4.359375 -7.5625 Z M 4.359375 -7.5625 "/></g></g><g style="fill:#f8f9fa;fill-opacity:1;"><g transform="translate(149.382792, 251.245296)"><path style="stroke:none" d="M 4.65625 -7.5625 C 6.007812 -7.5625 7.039062 -7.242188 7.75 -6.609375 C 8.46875 -5.972656 8.828125 -5.003906 8.828125 -3.703125 L 8.828125 -3.21875 L 3.296875 -3.21875 C 3.296875 -2.6875 3.410156 -2.285156 3.640625 -2.015625 C 3.878906 -1.742188 4.257812 -1.609375 4.78125 -1.609375 C 5.238281 -1.609375 5.578125 -1.707031 5.796875 -1.90625 C 6.015625 -2.101562 6.125 -2.363281 6.125 -2.6875 L 8.828125 -2.6875 C 8.828125 -1.789062 8.488281 -1.085938 7.8125 -0.578125 C 7.132812 -0.078125 6.140625 0.171875 4.828125 0.171875 C 3.453125 0.171875 2.382812 -0.144531 1.625 -0.78125 C 0.875 -1.425781 0.5 -2.398438 0.5 -3.703125 C 0.5 -4.960938 0.867188 -5.921875 1.609375 -6.578125 C 2.347656 -7.234375 3.363281 -7.5625 4.65625 -7.5625 Z M 4.78125 -5.78125 C 3.894531 -5.78125 3.398438 -5.363281 3.296875 -4.53125 L 6.015625 -4.53125 C 6.015625 -4.914062 5.90625 -5.21875 5.6875 -5.4375 C 5.46875 -5.664062 5.164062 -5.78125 4.78125 -5.78125 Z M 4.78125 -5.78125 "/></g></g><g style="fill:#f8f9fa;fill-opacity:1;"><g transform="translate(158.715586, 251.245296)"><path style="stroke:none" d="M 5.328125 -7.578125 C 5.546875 -7.578125 5.738281 -7.550781 5.90625 -7.5 C 6.070312 -7.445312 6.15625 -7.414062 6.15625 -7.40625 L 6.15625 -5.0625 L 5.265625 -5.0625 C 4.679688 -5.0625 4.257812 -4.910156 4 -4.609375 C 3.75 -4.316406 3.625 -3.878906 3.625 -3.296875 L 3.625 0 L 0.84375 0 L 0.84375 -7.390625 L 3.125 -7.390625 L 3.296875 -6.265625 C 3.472656 -6.703125 3.738281 -7.03125 4.09375 -7.25 C 4.457031 -7.46875 4.867188 -7.578125 5.328125 -7.578125 Z M 5.328125 -7.578125 "/></g></g><g style="fill:#f8f9fa;fill-opacity:1;"><g transform="translate(165.73982, 251.245296)"><path style="stroke:none" d="M 2.796875 0 L 0 -7.390625 L 3 -7.390625 L 4.359375 -2.78125 L 4.453125 -2.78125 L 5.8125 -7.390625 L 8.546875 -7.390625 L 5.71875 0 Z M 2.796875 0 "/></g></g><g style="fill:#f8f9fa;fill-opacity:1;"><g transform="translate(174.289049, 251.245296)"><path style="stroke:none" d="M 0.9375 -8.265625 L 0.9375 -10.15625 L 3.71875 -10.15625 L 3.71875 -8.265625 Z M 0.9375 0 L 0.9375 -7.390625 L 3.71875 -7.390625 L 3.71875 0 Z M 0.9375 0 "/></g></g><g style="fill:#f8f9fa;fill-opacity:1;"><g transform="translate(178.948453, 251.245296)"><path style="stroke:none" d="M 4.65625 -7.5625 C 5.875 -7.5625 6.859375 -7.300781 7.609375 -6.78125 C 8.359375 -6.257812 8.734375 -5.46875 8.734375 -4.40625 L 6.03125 -4.40625 C 6.03125 -5.25 5.570312 -5.671875 4.65625 -5.671875 C 3.75 -5.671875 3.296875 -5.144531 3.296875 -4.09375 L 3.296875 -3.296875 C 3.296875 -2.242188 3.769531 -1.71875 4.71875 -1.71875 C 5.664062 -1.71875 6.140625 -2.148438 6.140625 -3.015625 L 8.734375 -3.015625 C 8.734375 -1.941406 8.359375 -1.140625 7.609375 -0.609375 C 6.859375 -0.0859375 5.875 0.171875 4.65625 0.171875 C 3.363281 0.171875 2.347656 -0.15625 1.609375 -0.8125 C 0.867188 -1.46875 0.5 -2.429688 0.5 -3.703125 C 0.5 -4.960938 0.867188 -5.921875 1.609375 -6.578125 C 2.347656 -7.234375 3.363281 -7.5625 4.65625 -7.5625 Z M 4.65625 -7.5625 "/></g></g><g style="fill:#f8f9fa;fill-opacity:1;"><g transform="translate(188.281247, 251.245296)"><path style="stroke:none" d="M 4.65625 -7.5625 C 6.007812 -7.5625 7.039062 -7.242188 7.75 -6.609375 C 8.46875 -5.972656 8.828125 -5.003906 8.828125 -3.703125 L 8.828125 -3.21875 L 3.296875 -3.21875 C 3.296875 -2.6875 3.410156 -2.285156 3.640625 -2.015625 C 3.878906 -1.742188 4.257812 -1.609375 4.78125 -1.609375 C 5.238281 -1.609375 5.578125 -1.707031 5.796875 -1.90625 C 6.015625 -2.101562 6.125 -2.363281 6.125 -2.6875 L 8.828125 -2.6875 C 8.828125 -1.789062 8.488281 -1.085938 7.8125 -0.578125 C 7.132812 -0.078125 6.140625 0.171875 4.828125 0.171875 C 3.453125 0.171875 2.382812 -0.144531 1.625 -0.78125 C 0.875 -1.425781 0.5 -2.398438 0.5 -3.703125 C 0.5 -4.960938 0.867188 -5.921875 1.609375 -6.578125 C 2.347656 -7.234375 3.363281 -7.5625 4.65625 -7.5625 Z M 4.78125 -5.78125 C 3.894531 -5.78125 3.398438 -5.363281 3.296875 -4.53125 L 6.015625 -4.53125 C 6.015625 -4.914062 5.90625 -5.21875 5.6875 -5.4375 C 5.46875 -5.664062 5.164062 -5.78125 4.78125 -5.78125 Z M 4.78125 -5.78125 "/></g></g><g style="fill:#f8f9fa;fill-opacity:1;"><g transform="translate(197.61404, 251.245296)"><path style="stroke:none" d="M 4.359375 -7.5625 C 5.347656 -7.5625 6.179688 -7.363281 6.859375 -6.96875 C 7.546875 -6.582031 7.890625 -5.988281 7.890625 -5.1875 L 5.3125 -5.1875 C 5.3125 -5.457031 5.1875 -5.644531 4.9375 -5.75 C 4.769531 -5.84375 4.5625 -5.890625 4.3125 -5.890625 C 3.632812 -5.890625 3.296875 -5.734375 3.296875 -5.421875 C 3.296875 -5.242188 3.410156 -5.113281 3.640625 -5.03125 C 3.878906 -4.957031 4.265625 -4.878906 4.796875 -4.796875 C 5.453125 -4.703125 6 -4.59375 6.4375 -4.46875 C 6.875 -4.34375 7.253906 -4.117188 7.578125 -3.796875 C 7.910156 -3.472656 8.078125 -3.023438 8.078125 -2.453125 C 8.078125 -1.503906 7.722656 -0.828125 7.015625 -0.421875 C 6.316406 -0.0234375 5.394531 0.171875 4.25 0.171875 C 3.601562 0.171875 2.988281 0.0820312 2.40625 -0.09375 C 1.832031 -0.28125 1.363281 -0.566406 1 -0.953125 C 0.632812 -1.335938 0.453125 -1.820312 0.453125 -2.40625 L 3.03125 -2.40625 L 3.03125 -2.359375 C 3.039062 -2.035156 3.175781 -1.8125 3.4375 -1.6875 C 3.695312 -1.5625 3.96875 -1.5 4.25 -1.5 C 5.03125 -1.5 5.421875 -1.679688 5.421875 -2.046875 C 5.421875 -2.234375 5.296875 -2.367188 5.046875 -2.453125 C 4.804688 -2.535156 4.410156 -2.625 3.859375 -2.71875 C 3.203125 -2.832031 2.660156 -2.953125 2.234375 -3.078125 C 1.804688 -3.210938 1.429688 -3.4375 1.109375 -3.75 C 0.796875 -4.0625 0.640625 -4.492188 0.640625 -5.046875 C 0.640625 -5.953125 0.984375 -6.597656 1.671875 -6.984375 C 2.359375 -7.367188 3.253906 -7.5625 4.359375 -7.5625 Z M 4.359375 -7.5625 "/></g></g><g style="fill:#f8f9fa;fill-opacity:1;"><g transform="translate(206.163268, 251.245296)"><path style="stroke:none" d="M 0.859375 0 L 0.859375 -2.78125 L 3.828125 -2.78125 L 3.828125 0 Z M 0.859375 0 "/></g></g><g style="fill:#f8f9fa;fill-opacity:1;"><g transform="translate(210.822673, 251.245296)"><path style="stroke:none" d=""/></g></g><g style="fill:#f8f9fa;fill-opacity:1;"><g transform="translate(215.482077, 251.245296)"><path style="stroke:none" d="M 3.625 -6.625 C 3.925781 -6.914062 4.273438 -7.144531 4.671875 -7.3125 C 5.078125 -7.476562 5.5 -7.5625 5.9375 -7.5625 C 6.789062 -7.5625 7.429688 -7.320312 7.859375 -6.84375 C 8.296875 -6.363281 8.515625 -5.675781 8.515625 -4.78125 L 8.515625 0 L 5.71875 0 L 5.71875 -4.453125 C 5.71875 -4.765625 5.632812 -5.015625 5.46875 -5.203125 C 5.3125 -5.398438 5.082031 -5.5 4.78125 -5.5 C 4.4375 -5.5 4.15625 -5.382812 3.9375 -5.15625 C 3.726562 -4.9375 3.625 -4.664062 3.625 -4.34375 L 3.625 0 L 0.84375 0 L 0.84375 -10.15625 L 3.625 -10.15625 Z M 3.625 -6.625 "/></g></g><g style="fill:#f8f9fa;fill-opacity:1;"><g transform="translate(224.814871, 251.245296)"><path style="stroke:none" d="M 4.5 -7.5625 C 5.625 -7.5625 6.539062 -7.367188 7.25 -6.984375 C 7.957031 -6.609375 8.3125 -6 8.3125 -5.15625 L 8.3125 -2.265625 C 8.3125 -2.109375 8.347656 -1.976562 8.421875 -1.875 C 8.503906 -1.769531 8.617188 -1.71875 8.765625 -1.71875 L 9.265625 -1.71875 L 9.265625 -0.109375 C 9.234375 -0.0859375 9.160156 -0.0546875 9.046875 -0.015625 C 8.929688 0.0234375 8.765625 0.0664062 8.546875 0.109375 C 8.335938 0.148438 8.09375 0.171875 7.8125 0.171875 C 7.269531 0.171875 6.820312 0.0859375 6.46875 -0.078125 C 6.125 -0.242188 5.882812 -0.46875 5.75 -0.75 C 5.394531 -0.476562 5 -0.253906 4.5625 -0.078125 C 4.125 0.0859375 3.613281 0.171875 3.03125 0.171875 C 1.289062 0.171875 0.421875 -0.519531 0.421875 -1.90625 C 0.421875 -2.625 0.613281 -3.171875 1 -3.546875 C 1.382812 -3.921875 1.941406 -4.175781 2.671875 -4.3125 C 3.398438 -4.457031 4.351562 -4.53125 5.53125 -4.53125 L 5.53125 -4.90625 C 5.53125 -5.1875 5.425781 -5.398438 5.21875 -5.546875 C 5.019531 -5.703125 4.765625 -5.78125 4.453125 -5.78125 C 4.160156 -5.78125 3.910156 -5.726562 3.703125 -5.625 C 3.492188 -5.519531 3.390625 -5.359375 3.390625 -5.140625 L 3.390625 -5.078125 L 0.640625 -5.078125 C 0.628906 -5.128906 0.625 -5.195312 0.625 -5.28125 C 0.625 -5.976562 0.957031 -6.53125 1.625 -6.9375 C 2.289062 -7.351562 3.25 -7.5625 4.5 -7.5625 Z M 5.53125 -3.21875 C 4.738281 -3.21875 4.148438 -3.128906 3.765625 -2.953125 C 3.390625 -2.785156 3.203125 -2.554688 3.203125 -2.265625 C 3.203125 -1.796875 3.519531 -1.5625 4.15625 -1.5625 C 4.519531 -1.5625 4.835938 -1.660156 5.109375 -1.859375 C 5.390625 -2.054688 5.53125 -2.300781 5.53125 -2.59375 Z M 5.53125 -3.21875 "/></g></g><g style="fill:#f8f9fa;fill-opacity:1;"><g transform="translate(234.147664, 251.245296)"><path style="stroke:none" d="M 5.9375 -7.5625 C 6.789062 -7.5625 7.429688 -7.320312 7.859375 -6.84375 C 8.296875 -6.363281 8.515625 -5.675781 8.515625 -4.78125 L 8.515625 0 L 5.71875 0 L 5.71875 -4.453125 C 5.71875 -4.765625 5.632812 -5.015625 5.46875 -5.203125 C 5.3125 -5.398438 5.082031 -5.5 4.78125 -5.5 C 4.4375 -5.5 4.15625 -5.382812 3.9375 -5.15625 C 3.726562 -4.9375 3.625 -4.664062 3.625 -4.34375 L 3.625 0 L 0.84375 0 L 0.84375 -7.390625 L 3.125 -7.390625 L 3.296875 -6.265625 C 3.585938 -6.660156 3.96875 -6.972656 4.4375 -7.203125 C 4.914062 -7.441406 5.414062 -7.5625 5.9375 -7.5625 Z M 5.9375 -7.5625 "/></g></g><g style="fill:#f8f9fa;fill-opacity:1;"><g transform="translate(243.480458, 251.245296)"><path style="stroke:none" d="M 6.21875 0 L 5.984375 -1.046875 C 5.441406 -0.234375 4.65625 0.171875 3.625 0.171875 C 2.625 0.171875 1.851562 -0.15625 1.3125 -0.8125 C 0.769531 -1.46875 0.5 -2.429688 0.5 -3.703125 C 0.5 -4.972656 0.769531 -5.929688 1.3125 -6.578125 C 1.851562 -7.234375 2.625 -7.5625 3.625 -7.5625 C 4.476562 -7.5625 5.171875 -7.273438 5.703125 -6.703125 L 5.703125 -10.15625 L 8.484375 -10.15625 L 8.484375 0 Z M 4.5 -5.5 C 3.695312 -5.5 3.296875 -5.019531 3.296875 -4.0625 L 3.296875 -3.3125 C 3.296875 -2.363281 3.695312 -1.890625 4.5 -1.890625 C 4.90625 -1.890625 5.207031 -2.035156 5.40625 -2.328125 C 5.613281 -2.617188 5.71875 -2.992188 5.71875 -3.453125 L 5.71875 -3.921875 C 5.71875 -4.390625 5.613281 -4.769531 5.40625 -5.0625 C 5.207031 -5.351562 4.90625 -5.5 4.5 -5.5 Z M 4.5 -5.5 "/></g></g><g style="fill:#f8f9fa;fill-opacity:1;"><g transform="translate(252.813252, 251.245296)"><path style="stroke:none" d="M 0.9375 0 L 0.9375 -10.15625 L 3.71875 -10.15625 L 3.71875 0 Z M 0.9375 0 "/></g></g><g style="fill:#f8f9fa;fill-opacity:1;"><g transform="translate(257.472656, 251.245296)"><path style="stroke:none" d="M 4.65625 -7.5625 C 6.007812 -7.5625 7.039062 -7.242188 7.75 -6.609375 C 8.46875 -5.972656 8.828125 -5.003906 8.828125 -3.703125 L 8.828125 -3.21875 L 3.296875 -3.21875 C 3.296875 -2.6875 3.410156 -2.285156 3.640625 -2.015625 C 3.878906 -1.742188 4.257812 -1.609375 4.78125 -1.609375 C 5.238281 -1.609375 5.578125 -1.707031 5.796875 -1.90625 C 6.015625 -2.101562 6.125 -2.363281 6.125 -2.6875 L 8.828125 -2.6875 C 8.828125 -1.789062 8.488281 -1.085938 7.8125 -0.578125 C 7.132812 -0.078125 6.140625 0.171875 4.828125 0.171875 C 3.453125 0.171875 2.382812 -0.144531 1.625 -0.78125 C 0.875 -1.425781 0.5 -2.398438 0.5 -3.703125 C 0.5 -4.960938 0.867188 -5.921875 1.609375 -6.578125 C 2.347656 -7.234375 3.363281 -7.5625 4.65625 -7.5625 Z M 4.78125 -5.78125 C 3.894531 -5.78125 3.398438 -5.363281 3.296875 -4.53125 L 6.015625 -4.53125 C 6.015625 -4.914062 5.90625 -5.21875 5.6875 -5.4375 C 5.46875 -5.664062 5.164062 -5.78125 4.78125 -5.78125 Z M 4.78125 -5.78125 "/></g></g><g style="fill:#f8f9fa;fill-opacity:1;"><g transform="translate(266.80545, 251.245296)"><path style="stroke:none" d="M 6.21875 0 L 5.984375 -1.046875 C 5.441406 -0.234375 4.65625 0.171875 3.625 0.171875 C 2.625 0.171875 1.851562 -0.15625 1.3125 -0.8125 C 0.769531 -1.46875 0.5 -2.429688 0.5 -3.703125 C 0.5 -4.972656 0.769531 -5.929688 1.3125 -6.578125 C 1.851562 -7.234375 2.625 -7.5625 3.625 -7.5625 C 4.476562 -7.5625 5.171875 -7.273438 5.703125 -6.703125 L 5.703125 -10.15625 L 8.484375 -10.15625 L 8.484375 0 Z M 4.5 -5.5 C 3.695312 -5.5 3.296875 -5.019531 3.296875 -4.0625 L 3.296875 -3.3125 C 3.296875 -2.363281 3.695312 -1.890625 4.5 -1.890625 C 4.90625 -1.890625 5.207031 -2.035156 5.40625 -2.328125 C 5.613281 -2.617188 5.71875 -2.992188 5.71875 -3.453125 L 5.71875 -3.921875 C 5.71875 -4.390625 5.613281 -4.769531 5.40625 -5.0625 C 5.207031 -5.351562 4.90625 -5.5 4.5 -5.5 Z M 4.5 -5.5 "/></g></g><g style="fill:#f8f9fa;fill-opacity:1;"><g transform="translate(276.138243, 251.245296)"><path style="stroke:none" d="M 0.859375 0 L 0.859375 -2.78125 L 3.828125 -2.78125 L 3.828125 0 Z M 0.859375 0 "/></g></g></g></svg>